<svg xmlns="http://www.w3.org/2000/svg" width="93" height="93" viewBox="0 0 93 93" fill="none"><g clip-path="url(#clip0_78_21)"><path d="M46.3259 0C20.7413 0 0 20.82 0 46.5028C0 72.1855 20.7413 93 46.3259 93C71.9105 93 92.6573 72.18 92.6573 46.5028C92.6573 20.8255 71.916 0 46.3259 0ZM84.3167 65.4682C77.3661 79.4604 62.9686 89.0756 46.3314 89.0756C29.6943 89.0756 15.3629 79.5101 8.39581 65.5675C8.3572 65.3191 7.82212 61.0249 11.9318 60.9366C11.9318 60.9366 15.3243 60.1307 18.1872 64.9604L18.3417 65.3522C18.3417 65.3522 18.0052 60.8924 20.7192 61.1629C21.4915 61.334 21.9604 61.6983 22.0928 63.4093C22.0928 63.9447 22.5286 66.7266 25.2757 69.1111C28.0228 71.4956 31.6856 74.846 37.2681 76.0051V73.5489C37.2681 73.5489 29.9425 70.2426 27.9346 66.5721C27.9346 66.5721 24.9392 62.5041 24.4041 59.4187C24.4041 59.4187 20.3386 58.8833 20.2945 55.0802C20.2945 55.0802 20.0242 51.6415 24.4041 50.7915C24.4041 50.7915 26.059 38.6318 42.4976 35.1931C42.4976 35.1931 45.7908 37.7597 43.0768 41.215C43.0768 41.215 42.8617 41.5517 42.4645 41.7835C42.0618 42.0208 40.2414 42.6445 42.5969 43.2683C44.9523 43.8975 48.7751 42.8985 50.0273 40.1718C51.2795 37.4451 49.6688 35.2096 49.6688 35.2096C49.6688 35.2096 54.4018 35.4801 57.5736 37.6272C60.7455 39.7688 66.0577 42.5894 68.1153 50.8136C68.1153 50.8136 71.9105 50.9019 72.3573 55.2845C72.3573 55.2845 72.087 59.082 68.3801 59.2641C68.3801 59.2641 65.9253 69.3208 55.4719 73.4771L55.3395 76.0051C55.3395 76.0051 63.9174 73.571 68.2036 68.2942C68.2036 68.2942 70.4377 65.5675 70.6142 63.735C70.7962 61.9025 71.061 60.8262 72.7159 61.1849C72.7159 61.1849 74.7735 61.7645 74.2825 65.2529C74.2825 65.2529 77.5427 59.8437 82.0109 61.1408C82.0109 61.1408 84.6587 61.8363 84.3167 65.4682ZM86.2584 60.8924C84.9069 59.4959 81.9226 57.4592 76.9634 59.2641C76.9634 59.2641 73.6592 59.4463 75.6781 54.7104C77.6971 49.9746 72.1918 47.5901 72.1918 47.5901C72.1918 47.5901 70.4321 44.6371 67.2272 41.2315C62.9355 36.6723 56.0567 31.3017 47.3685 31.1362L45.2778 31.1748C36.3414 31.3845 29.5784 36.7882 25.5019 41.2426C22.6003 44.4053 21.0612 47.0934 21.0612 47.0934C21.0612 47.0934 20.1014 47.5128 19.1416 48.3518C17.8342 49.4944 16.5379 51.4097 17.6687 54.0867C19.638 58.7342 16.4165 58.5576 16.4165 58.5576C9.49356 56.0075 6.52027 61.2291 6.52027 61.2291C4.83228 56.6368 3.91106 51.6746 3.91106 46.4917C3.91106 34.4203 8.91986 23.5191 16.9571 15.7695C18.0162 14.3455 25.4798 9.30607 27.8187 8.16903C33.4122 5.44234 39.6898 3.91341 46.3259 3.91341C52.962 3.91341 59.3995 5.48098 65.0482 8.2739C67.5085 9.48822 75.4189 14.9802 76.5111 16.5754C84.0795 24.2642 88.7463 34.8288 88.7463 46.4917C88.7463 51.5422 87.8692 56.3884 86.2584 60.8869V60.8924Z" fill="#586644"></path><path d="M65.0482 8.28506C59.405 5.49213 53.0447 3.92456 46.3259 3.92456C39.607 3.92456 33.4122 5.45349 27.8187 8.18018C25.4798 9.31722 18.0162 14.3566 16.9571 15.7807C8.91433 23.5302 3.91104 34.426 3.91104 46.5029C3.91104 51.6858 4.83226 56.6479 6.52025 61.2402C6.52025 61.2402 9.49354 56.0187 16.4165 58.5688C16.4165 58.5688 19.6325 58.7454 17.6687 54.0979C16.5379 51.4153 17.8397 49.5055 19.1416 48.363C20.1014 47.5295 21.0612 47.1045 21.0612 47.1045C21.0612 47.1045 22.6058 44.4165 25.5018 41.2537C29.5784 36.7994 36.3414 31.3957 45.2778 31.1859L47.3685 31.1473C56.0566 31.3129 62.9355 36.6835 67.2272 41.2427C70.4321 44.6428 72.1918 47.6013 72.1918 47.6013C72.1918 47.6013 77.6971 49.9858 75.6781 54.7216C73.6592 59.4574 76.9634 59.2753 76.9634 59.2753C81.9171 57.4703 84.9069 59.5016 86.2584 60.9035C87.8692 56.4106 88.7463 51.5644 88.7463 46.5084C88.7463 34.8454 84.0739 24.2809 76.5111 16.5921C75.4189 14.9969 67.5085 9.50489 65.0482 8.29058V8.28506ZM49.1723 27.4602C48.731 27.9183 47.2526 27.7748 47.2526 27.7748C47.2526 27.7748 39.9932 25.1199 36.0821 20.4448C32.502 16.1671 34.0245 13.4404 34.9182 12.0384C37.8363 9.50489 43.6725 12.5738 43.6725 12.5738C44.9247 10.25 45.9508 5.87298 50.0163 5.64668C54.0818 5.42038 54.8431 8.95293 54.8431 8.95293C58.3294 18.7006 49.1668 27.4602 49.1668 27.4602H49.1723Z" fill="#BCCFBF"></path><path d="M50.0218 5.64666C45.9563 5.86744 44.9303 10.25 43.6781 12.5738C43.6781 12.5738 37.8363 9.50487 34.9237 12.0384C34.0301 13.4348 32.5076 16.1615 36.0877 20.4447C39.9987 25.1254 47.2582 27.7748 47.2582 27.7748C47.2582 27.7748 48.7365 27.9183 49.1778 27.4602C49.1778 27.4602 58.3349 18.7005 54.8541 8.95291C54.8541 8.95291 54.0929 5.42035 50.0274 5.64666H50.0218ZM51.0479 18.9213C49.5695 24.3747 47.203 25.5393 47.203 25.5393C45.5481 25.451 40.2856 22.8403 38.0901 17.7622C36.4573 11.2325 43.314 15.3446 43.314 15.3446C43.9318 24.5072 47.5119 21.2892 47.5119 21.2892C51.3457 18.5405 45.5922 14.18 45.5922 14.18C45.7302 11.365 48.5655 9.9354 48.5655 9.9354C51.3568 8.1912 51.9856 12.2592 51.9856 12.2592C52.2559 14.0475 51.0479 18.9213 51.0479 18.9213ZM45.4212 17.0005C45.4212 17.0005 46.6293 17.0115 47.1423 18.8661C47.3299 19.5561 46.9879 19.6334 46.9879 19.6334C46.9879 19.6334 45.3771 19.1863 45.4212 16.995V17.0005Z" fill="white"></path><path d="M82.0109 61.1462C77.5427 59.8491 74.2825 65.2583 74.2825 65.2583C74.7735 61.7699 72.7159 61.1904 72.7159 61.1904C71.061 60.8316 70.7962 61.9024 70.6142 63.7404C70.4376 65.5729 68.2035 68.2996 68.2035 68.2996C63.9174 73.5764 55.3395 76.0105 55.3395 76.0105L55.4719 73.4825C65.9253 69.3263 68.3801 59.2695 68.3801 59.2695C72.087 59.0929 72.3573 55.2899 72.3573 55.2899C71.9105 50.9073 68.1153 50.819 68.1153 50.819C66.0577 42.5948 60.7455 39.7742 57.5736 37.6326C54.4018 35.4855 49.6688 35.215 49.6688 35.215C49.6688 35.215 51.2795 37.4505 50.0273 40.1772C48.7751 42.9039 44.9579 43.8974 42.5969 43.2737C40.2414 42.65 42.0618 42.0207 42.4645 41.7889C42.8672 41.5571 43.0768 41.2204 43.0768 41.2204C45.7908 37.7651 42.4976 35.1985 42.4976 35.1985C26.059 38.6372 24.4041 50.7969 24.4041 50.7969C20.0297 51.6469 20.2945 55.0857 20.2945 55.0857C20.3386 58.8832 24.4041 59.4241 24.4041 59.4241C24.9392 62.5095 27.9346 66.5775 27.9346 66.5775C29.9425 70.2425 37.2681 73.5543 37.2681 73.5543V76.0105C31.6856 74.8459 28.0228 71.4955 25.2757 69.1165C22.5286 66.7376 22.0928 63.9557 22.0928 63.4148C21.9604 61.7037 21.4915 61.3394 20.7192 61.1683C18.0052 60.8978 18.3417 65.3577 18.3417 65.3577L18.1872 64.9658C15.3298 60.1361 11.9318 60.942 11.9318 60.942C7.82212 61.0303 8.3572 65.3245 8.39581 65.5729C15.3629 79.51 29.7329 89.081 46.3314 89.081C62.93 89.081 77.3716 79.4658 84.3167 65.4736C84.6587 61.8472 82.0109 61.1462 82.0109 61.1462ZM36.4517 52.359C35.0009 52.359 33.826 51.1833 33.826 49.7316C33.826 48.28 35.0009 47.1043 36.4517 47.1043C37.9025 47.1043 39.0775 48.28 39.0775 49.7316C39.0775 51.1833 37.9025 52.359 36.4517 52.359ZM52.7965 57.3763C52.7965 57.3763 51.3181 63.343 46.3093 63.1774C40.7655 62.9456 39.5739 57.7461 39.5739 57.7461C39.5739 57.7461 38.7189 54.7986 40.7655 54.2577C47.1092 52.5908 51.9194 54.208 52.0573 54.2577C52.0573 54.2577 53.7343 54.4288 52.7965 57.3763ZM53.6791 49.7316C53.6791 48.28 54.8541 47.1043 56.3049 47.1043C57.7557 47.1043 58.9307 48.28 58.9307 49.7316C58.9307 51.1833 57.7557 52.359 56.3049 52.359C54.8541 52.359 53.6791 51.1833 53.6791 49.7316Z" fill="#F4D7C3"></path><path d="M36.4517 52.3592C37.9019 52.3592 39.0774 51.1829 39.0774 49.7318C39.0774 48.2808 37.9019 47.1045 36.4517 47.1045C35.0015 47.1045 33.8259 48.2808 33.8259 49.7318C33.8259 51.1829 35.0015 52.3592 36.4517 52.3592Z" fill="#586644"></path><path d="M58.1681 51.589C59.1935 50.563 59.1935 48.8994 58.1681 47.8734C57.1426 46.8474 55.4801 46.8474 54.4547 47.8734C53.4293 48.8994 53.4293 50.563 54.4547 51.589C55.4801 52.615 57.1426 52.615 58.1681 51.589Z" fill="#586644"></path><path d="M52.0574 54.2579C51.9195 54.2082 47.1092 52.591 40.7655 54.2579C38.7245 54.7933 39.574 57.7463 39.574 57.7463C39.574 57.7463 40.76 62.9458 46.3094 63.1776C51.3182 63.3487 52.7966 57.3765 52.7966 57.3765C53.7343 54.429 52.0574 54.2579 52.0574 54.2579ZM46.4749 61.0028C43.7498 61.0249 42.4976 58.2486 42.4976 58.2486C42.4976 58.2486 46.8886 56.8079 50.0881 58.2486C50.0881 58.2486 49.1999 60.9808 46.4749 61.0028Z" fill="#586644"></path><path d="M42.5031 58.2484C42.5031 58.2484 43.7553 61.0193 46.4804 61.0027C49.2054 60.9806 50.0936 58.2484 50.0936 58.2484C46.8941 56.8078 42.5031 58.2484 42.5031 58.2484Z" fill="#E26A5A"></path><path d="M47.1423 18.8661C46.6348 17.0115 45.4212 17.0005 45.4212 17.0005C45.3771 19.1918 46.9879 19.6389 46.9879 19.6389C46.9879 19.6389 47.3354 19.5616 47.1423 18.8716V18.8661Z" fill="#BCCFBF"></path><path d="M48.5711 9.93518C48.5711 9.93518 45.7357 11.3648 45.5978 14.1798C45.5978 14.1798 51.3568 18.5347 47.5174 21.289C47.5174 21.289 43.9374 24.507 43.3195 15.3444C43.3195 15.3444 36.4628 11.2268 38.0956 17.762C40.2911 22.84 45.5536 25.4508 47.2085 25.5391C47.2085 25.5391 49.575 24.38 51.0534 18.9211C51.0534 18.9211 52.2615 14.0473 51.9912 12.2589C51.9912 12.2589 51.3623 8.19098 48.5711 9.93518Z" fill="#BCCFBF"></path></g><defs><clipPath id="clip0_78_21"><rect width="93" height="93" fill="white"></rect></clipPath></defs></svg>